# xmcd
#
# Track frame offsets: 
#        150
#        20344
#        44923
#        62748
#        80761
#        98924
#        119816
#        139601
#        161270
#        183317
#
# Disc length: 2662 seconds
#
# Revision: 0
# Processed by: cddbd v1.5.2PL0 Copyright (c) Steve Scherf et al.
# Submitted via: ExactAudioCopy v1.0b3
#
DISCID=8a0a640a
DTITLE=Skeeter Brandon - It's Good To Go
DYEAR=2002
DGENRE=Blues
TTITLE0=It's Good To Go
TTITLE1=The Way Love Grows
TTITLE2=Me And My Baby
TTITLE3=You Never Want To Love Me
TTITLE4=You Can't Have It Your Way
TTITLE5=Why Not Tonight
TTITLE6=Blues Hangover
TTITLE7=Silent Treatment
TTITLE8=I Truly Love You
TTITLE9=Special Kind Of Woman
EXTD=
EXTT0=
EXTT1=
EXTT2=
EXTT3=
EXTT4=
EXTT5=
EXTT6=
EXTT7=
EXTT8=
EXTT9=
PLAYORDER=
